<?xml version="1.0" encoding="utf-8"?>
<!DOCTYPE svg PUBLIC "-//W3C//DTD SVG 1.1//EN" "http://www.w3.org/Graphics/SVG/1.1/DTD/svg11.dtd">
<svg version="1.1" xmlns="http://www.w3.org/2000/svg" xmlns:xlink="http://www.w3.org/1999/xlink" x="0px" y="0px" viewBox="0 0 256 256" enable-background="new 0 0 256 256" xml:space="preserve">

<g>
<path fill="#377dae" d="M243.6,76.3c-2.2-10.4-5.6-22.1-11.2-25.3c-5.5-3.2-17.6-0.4-27.6,2.9c-19.9,6.5-35.3,17.2-48.6,33.7c-17.1,21.2-23.2,37.4-25.4,45.2l-22.8,0.6l-6.8,65.5l33-19.9l36.4,21l-0.7,38.5l53.3-38.7l-10.9-20.1c5.7-5.8,16.6-19.3,26.5-44.6C246.4,115.5,247.9,96.7,243.6,76.3L243.6,76.3z M189.7,195.3l-61-35.3l-11.4,8.8l3.5-22.2l17.3,0l6.2,0.1l0.4-5.2c0.1-0.7,2.6-18.7,24.2-44.9c12-14.5,26-23.8,44.3-29.1c3.3-1,7.4-1.9,11.1-2.6c1.3,3.6,2.5,7.6,3.3,11c4.6,18.4,3.6,35.2-3,52.9c-11.9,31.8-26.2,42.9-26.8,43.4l-4.2,2.9l11.8,20.3l-17.5,14.1L189.7,195.3L189.7,195.3z M215.1,81c-8.1-4.7-18.5-1.9-23.2,6.2s-1.9,18.5,6.2,23.2c8.1,4.7,18.5,1.9,23.2-6.2C226,96.1,223.2,85.7,215.1,81L215.1,81L215.1,81z M203.4,101.4c-3.1-1.8-4.2-5.8-2.4-8.9c1.8-3.1,5.8-4.2,8.9-2.4c3.1,1.8,4.2,5.8,2.4,8.9C210.5,102.1,206.5,103.1,203.4,101.4L203.4,101.4L203.4,101.4z M157.9,198.2c0,0-2.3,9.3-7.3,12.7c-5,3.3-7.8,3.4-13.1,4.4c-1.8-5.1-3.2-7.6-2.8-13.6c0.4-6,7.3-12.7,7.3-12.7s-5.4-2.4-12.5,3.6c-11.4,14.5,1.3,34,1.3,34s23.2,1.3,30.1-15.8C162.7,201.6,157.9,198.2,157.9,198.2L157.9,198.2z"/>
<path fill="#1f6989" d="M77.3,183.4H64.1c-22.4,0-40.6-18.2-40.6-40.6c0-22.4,18.2-40.6,40.6-40.6c0.2,0,0.6,0,0.6,0l6.5,0.1c0.4,0,2.6,0.2,5-2.3c2.3-2.5,1.5-4.8,1.5-7.6c0-33.9,27.5-61.4,61.3-61.4c15.9,0,30.4,6.1,41.3,16c1.3,1.1,1,1.1,2.1,2.3c1.3,1.9,3.5,3.3,6,3.3c3.7,0,6.8-3,6.8-6.8c0-2.3-1.3-4.3-2.9-5.9c-1.1-1.3-0.9-0.9-2.2-2.1c-13.3-12.6-31.3-20.4-51.2-20.4c-40.1,0-72.8,31.6-74.8,71.3c-30,0-54.2,24.2-54.2,54.1c0,29.9,24.2,54.1,54.1,54.1h13.2c3.7,0,6.8-3,6.8-6.8C84.1,186.5,81.1,183.4,77.3,183.4L77.3,183.4z"/></g>

</svg>